<?xml version="1.0" encoding="UTF-8" standalone="no"?>
<!DOCTYPE svg PUBLIC "-//W3C//DTD SVG 1.1//EN"
 "http://www.w3.org/Graphics/SVG/1.1/DTD/svg11.dtd">
<!-- Generated by graphviz version 2.40.1 (20161225.0304)
 -->
<!-- Title: %3 Pages: 1 -->
<svg width="718pt" height="675pt"
 viewBox="0.00 0.00 718.15 675.43" xmlns="http://www.w3.org/2000/svg" xmlns:xlink="http://www.w3.org/1999/xlink">
<g id="graph0" class="graph" transform="scale(1 1) rotate(0) translate(4 671.4335)">
<title>%3</title>
<polygon fill="#ffffff" stroke="transparent" points="-4,4 -4,-671.4335 714.1539,-671.4335 714.1539,4 -4,4"/>
<!-- rpi1 -->
<g id="node1" class="node">
<title>rpi1</title>
<ellipse fill="none" stroke="#000000" cx="171.5599" cy="-649.4335" rx="29.795" ry="18"/>
<text text-anchor="middle" x="171.5599" y="-645.7335" font-family="Times,serif" font-size="14.00" fill="#000000">rpi1</text>
</g>
<!-- maskrom1 -->
<g id="node2" class="node">
<title>maskrom1</title>
<ellipse fill="none" stroke="#000000" cx="249.5599" cy="-576.4335" rx="59.5901" ry="18"/>
<text text-anchor="middle" x="249.5599" y="-572.7335" font-family="Times,serif" font-size="14.00" fill="#000000">maskrom1</text>
</g>
<!-- rpi1&#45;&gt;maskrom1 -->
<g id="edge1" class="edge">
<title>rpi1&#45;&gt;maskrom1</title>
<path fill="none" stroke="#000000" d="M188.1017,-633.9521C198.4465,-624.2705 211.9892,-611.5959 223.7284,-600.6092"/>
<polygon fill="#000000" stroke="#000000" points="226.221,-603.0702 231.1306,-593.6815 221.4377,-597.9593 226.221,-603.0702"/>
</g>
<!-- sd_bootcode -->
<g id="node7" class="node">
<title>sd_bootcode</title>
<ellipse fill="none" stroke="#000000" cx="85.5599" cy="-426.5635" rx="85.6199" ry="26.7407"/>
<text text-anchor="middle" x="85.5599" y="-430.3635" font-family="Times,serif" font-size="14.00" fill="#000000">bootcode.bin</text>
<text text-anchor="middle" x="85.5599" y="-415.3635" font-family="Times,serif" font-size="14.00" fill="#000000">on primary SD</text>
</g>
<!-- maskrom1&#45;&gt;sd_bootcode -->
<g id="edge5" class="edge">
<title>maskrom1&#45;&gt;sd_bootcode</title>
<path fill="none" stroke="#000000" d="M209.6316,-562.8551C181.8754,-551.6877 145.6752,-533.4442 121.5599,-507.4335 109.9889,-494.9531 101.6921,-478.1371 96.002,-463.072"/>
<polygon fill="#000000" stroke="#000000" points="99.2509,-461.7603 92.6311,-453.4881 92.6475,-464.0829 99.2509,-461.7603"/>
<text text-anchor="middle" x="169.5599" y="-529.2335" font-family="Times,serif" font-size="14.00" fill="#000000">1</text>
</g>
<!-- nand_flash -->
<g id="node8" class="node">
<title>nand_flash</title>
<ellipse fill="none" stroke="#000000" cx="315.5599" cy="-489.4335" rx="61.1893" ry="18"/>
<text text-anchor="middle" x="315.5599" y="-485.7335" font-family="Times,serif" font-size="14.00" fill="#000000">nand_flash</text>
</g>
<!-- maskrom1&#45;&gt;nand_flash -->
<g id="edge6" class="edge">
<title>maskrom1&#45;&gt;nand_flash</title>
<path fill="none" stroke="#000000" d="M262.916,-558.8278C272.3986,-546.328 285.2837,-529.3432 295.9326,-515.3059"/>
<polygon fill="#000000" stroke="#000000" points="298.9682,-517.0954 302.2237,-507.0131 293.3914,-512.8647 298.9682,-517.0954"/>
<text text-anchor="middle" x="290.5599" y="-529.2335" font-family="Times,serif" font-size="14.00" fill="#000000">2</text>
</g>
<!-- spi_flash -->
<g id="node9" class="node">
<title>spi_flash</title>
<ellipse fill="none" stroke="#000000" cx="446.5599" cy="-489.4335" rx="51.9908" ry="18"/>
<text text-anchor="middle" x="446.5599" y="-485.7335" font-family="Times,serif" font-size="14.00" fill="#000000">spi_flash</text>
</g>
<!-- maskrom1&#45;&gt;spi_flash -->
<g id="edge7" class="edge">
<title>maskrom1&#45;&gt;spi_flash</title>
<path fill="none" stroke="#000000" d="M283.4254,-561.4777C317.1547,-546.582 368.9875,-523.6914 405.1467,-507.7226"/>
<polygon fill="#000000" stroke="#000000" points="406.7071,-510.8597 414.4408,-503.6181 403.8792,-504.4563 406.7071,-510.8597"/>
<text text-anchor="middle" x="364.5599" y="-529.2335" font-family="Times,serif" font-size="14.00" fill="#000000">3</text>
</g>
<!-- usb_boot -->
<g id="node10" class="node">
<title>usb_boot</title>
<ellipse fill="none" stroke="#000000" cx="183.5599" cy="-489.4335" rx="52.7911" ry="18"/>
<text text-anchor="middle" x="183.5599" y="-485.7335" font-family="Times,serif" font-size="14.00" fill="#000000">usb_boot</text>
</g>
<!-- maskrom1&#45;&gt;usb_boot -->
<g id="edge8" class="edge">
<title>maskrom1&#45;&gt;usb_boot</title>
<path fill="none" stroke="#000000" d="M236.2038,-558.8278C226.7212,-546.328 213.8362,-529.3432 203.1872,-515.3059"/>
<polygon fill="#000000" stroke="#000000" points="205.7285,-512.8647 196.8961,-507.0131 200.1516,-517.0954 205.7285,-512.8647"/>
<text text-anchor="middle" x="225.5599" y="-529.2335" font-family="Times,serif" font-size="14.00" fill="#000000">4</text>
</g>
<!-- rpi2 -->
<g id="node3" class="node">
<title>rpi2</title>
<ellipse fill="none" stroke="#000000" cx="249.5599" cy="-649.4335" rx="29.795" ry="18"/>
<text text-anchor="middle" x="249.5599" y="-645.7335" font-family="Times,serif" font-size="14.00" fill="#000000">rpi2</text>
</g>
<!-- rpi2&#45;&gt;maskrom1 -->
<g id="edge2" class="edge">
<title>rpi2&#45;&gt;maskrom1</title>
<path fill="none" stroke="#000000" d="M249.5599,-631.3886C249.5599,-623.3164 249.5599,-613.6099 249.5599,-604.6153"/>
<polygon fill="#000000" stroke="#000000" points="253.06,-604.5239 249.5599,-594.5239 246.06,-604.5239 253.06,-604.5239"/>
</g>
<!-- rpi3 -->
<g id="node4" class="node">
<title>rpi3</title>
<ellipse fill="none" stroke="#000000" cx="327.5599" cy="-649.4335" rx="29.795" ry="18"/>
<text text-anchor="middle" x="327.5599" y="-645.7335" font-family="Times,serif" font-size="14.00" fill="#000000">rpi3</text>
</g>
<!-- rpi3&#45;&gt;maskrom1 -->
<g id="edge3" class="edge">
<title>rpi3&#45;&gt;maskrom1</title>
<path fill="none" stroke="#000000" d="M311.0181,-633.9521C300.6733,-624.2705 287.1306,-611.5959 275.3914,-600.6092"/>
<polygon fill="#000000" stroke="#000000" points="277.6821,-597.9593 267.9893,-593.6815 272.8989,-603.0702 277.6821,-597.9593"/>
</g>
<!-- rpi4 -->
<g id="node5" class="node">
<title>rpi4</title>
<ellipse fill="none" stroke="#000000" cx="576.5599" cy="-576.4335" rx="29.795" ry="18"/>
<text text-anchor="middle" x="576.5599" y="-572.7335" font-family="Times,serif" font-size="14.00" fill="#000000">rpi4</text>
</g>
<!-- maskrom2 -->
<g id="node6" class="node">
<title>maskrom2</title>
<ellipse fill="none" stroke="#000000" cx="576.5599" cy="-489.4335" rx="59.5901" ry="18"/>
<text text-anchor="middle" x="576.5599" y="-485.7335" font-family="Times,serif" font-size="14.00" fill="#000000">maskrom2</text>
</g>
<!-- rpi4&#45;&gt;maskrom2 -->
<g id="edge4" class="edge">
<title>rpi4&#45;&gt;maskrom2</title>
<path fill="none" stroke="#000000" d="M576.5599,-558.4071C576.5599,-546.6253 576.5599,-530.9942 576.5599,-517.5916"/>
<polygon fill="#000000" stroke="#000000" points="580.06,-517.4369 576.5599,-507.4369 573.06,-517.4369 580.06,-517.4369"/>
</g>
<!-- sd_recovery -->
<g id="node11" class="node">
<title>sd_recovery</title>
<ellipse fill="none" stroke="#000000" cx="642.5599" cy="-363.6934" rx="67.6881" ry="18"/>
<text text-anchor="middle" x="642.5599" y="-359.9934" font-family="Times,serif" font-size="14.00" fill="#000000">sd_recovery</text>
</g>
<!-- maskrom2&#45;&gt;sd_recovery -->
<g id="edge9" class="edge">
<title>maskrom2&#45;&gt;sd_recovery</title>
<path fill="none" stroke="#000000" d="M586.0161,-471.4181C597.0924,-450.316 615.5525,-415.1467 628.3533,-390.7593"/>
<polygon fill="#000000" stroke="#000000" points="631.5727,-392.1566 633.1213,-381.6755 625.3746,-388.9032 631.5727,-392.1566"/>
<text text-anchor="middle" x="627.5599" y="-422.8635" font-family="Times,serif" font-size="14.00" fill="#000000">1</text>
</g>
<!-- spi_blob -->
<g id="node12" class="node">
<title>spi_blob</title>
<ellipse fill="none" stroke="#000000" cx="546.5599" cy="-309.6934" rx="49.2915" ry="18"/>
<text text-anchor="middle" x="546.5599" y="-305.9934" font-family="Times,serif" font-size="14.00" fill="#000000">spi_blob</text>
</g>
<!-- maskrom2&#45;&gt;spi_blob -->
<g id="edge10" class="edge">
<title>maskrom2&#45;&gt;spi_blob</title>
<path fill="none" stroke="#000000" d="M573.5183,-471.21C568.2714,-439.774 557.485,-375.149 551.2641,-337.8776"/>
<polygon fill="#000000" stroke="#000000" points="554.6637,-336.9853 549.565,-327.698 547.7592,-338.1378 554.6637,-336.9853"/>
<text text-anchor="middle" x="574.5599" y="-422.8635" font-family="Times,serif" font-size="14.00" fill="#000000">2</text>
</g>
<!-- usb_device_boot -->
<g id="node13" class="node">
<title>usb_device_boot</title>
<ellipse fill="none" stroke="#000000" cx="413.5599" cy="-363.6934" rx="87.9851" ry="18"/>
<text text-anchor="middle" x="413.5599" y="-359.9934" font-family="Times,serif" font-size="14.00" fill="#000000">usb_device_boot</text>
</g>
<!-- maskrom2&#45;&gt;usb_device_boot -->
<g id="edge11" class="edge">
<title>maskrom2&#45;&gt;usb_device_boot</title>
<path fill="none" stroke="#000000" d="M546.7849,-473.7485C536.3112,-467.8178 524.6447,-460.7288 514.5599,-453.4335 487.0442,-433.529 458.3469,-407.4353 438.6053,-388.5195"/>
<polygon fill="#000000" stroke="#000000" points="440.8623,-385.8332 431.2408,-381.3973 435.9961,-390.8651 440.8623,-385.8332"/>
<text text-anchor="middle" x="519.5599" y="-422.8635" font-family="Times,serif" font-size="14.00" fill="#000000">3</text>
</g>
<!-- start_elf -->
<g id="node17" class="node">
<title>start_elf</title>
<ellipse fill="none" stroke="#000000" cx="257.5599" cy="-108.7401" rx="48.1917" ry="18"/>
<text text-anchor="middle" x="257.5599" y="-105.0401" font-family="Times,serif" font-size="14.00" fill="#000000">start.elf</text>
</g>
<!-- sd_bootcode&#45;&gt;start_elf -->
<g id="edge16" class="edge">
<title>sd_bootcode&#45;&gt;start_elf</title>
<path fill="none" stroke="#000000" d="M77.542,-399.607C65.7765,-354.3715 49.1298,-261.9394 87.5599,-198.7401 113.2865,-156.4321 166.2413,-132.9412 206.2529,-120.6628"/>
<polygon fill="#000000" stroke="#000000" points="207.2492,-124.0181 215.8635,-117.8501 205.283,-117.2999 207.2492,-124.0181"/>
</g>
<!-- usb_boot&#45;&gt;usb_device_boot -->
<g id="edge13" class="edge">
<title>usb_boot&#45;&gt;usb_device_boot</title>
<path fill="none" stroke="#000000" d="M217.0572,-475.3967C231.5417,-469.0622 248.5725,-461.2552 263.5599,-453.4335 303.7884,-432.4391 348.1985,-405.353 378.18,-386.4546"/>
<polygon fill="#000000" stroke="#000000" points="380.4252,-389.1756 387.0008,-380.8682 376.6799,-383.2618 380.4252,-389.1756"/>
<text text-anchor="middle" x="381.0599" y="-422.8635" font-family="Times,serif" font-size="14.00" fill="#000000">OTG=1</text>
</g>
<!-- usb_host_boot -->
<g id="node14" class="node">
<title>usb_host_boot</title>
<ellipse fill="none" stroke="#000000" cx="212.5599" cy="-363.6934" rx="77.1866" ry="18"/>
<text text-anchor="middle" x="212.5599" y="-359.9934" font-family="Times,serif" font-size="14.00" fill="#000000">usb_host_boot</text>
</g>
<!-- usb_boot&#45;&gt;usb_host_boot -->
<g id="edge12" class="edge">
<title>usb_boot&#45;&gt;usb_host_boot</title>
<path fill="none" stroke="#000000" d="M187.7149,-471.4181C192.5172,-450.5961 200.4783,-416.0779 206.0923,-391.7361"/>
<polygon fill="#000000" stroke="#000000" points="209.5757,-392.2063 208.4126,-381.6755 202.7547,-390.6331 209.5757,-392.2063"/>
<text text-anchor="middle" x="232.0599" y="-422.8635" font-family="Times,serif" font-size="14.00" fill="#000000">OTG=0</text>
</g>
<!-- start4_elf -->
<g id="node18" class="node">
<title>start4_elf</title>
<ellipse fill="none" stroke="#000000" cx="510.5599" cy="-162.7401" rx="53.8905" ry="18"/>
<text text-anchor="middle" x="510.5599" y="-159.0401" font-family="Times,serif" font-size="14.00" fill="#000000">start4.elf</text>
</g>
<!-- spi_blob&#45;&gt;start4_elf -->
<g id="edge19" class="edge">
<title>spi_blob&#45;&gt;start4_elf</title>
<path fill="none" stroke="#000000" d="M544.9901,-291.6615C542.7098,-269.4108 537.6077,-230.6126 527.5599,-198.7401 526.6339,-195.8026 525.5151,-192.7968 524.2987,-189.8357"/>
<polygon fill="#000000" stroke="#000000" points="527.4756,-188.3661 520.1974,-180.6668 521.0857,-191.2244 527.4756,-188.3661"/>
</g>
<!-- usb_bootcode -->
<g id="node15" class="node">
<title>usb_bootcode</title>
<ellipse fill="none" stroke="#000000" cx="212.5599" cy="-236.2168" rx="115.931" ry="26.7407"/>
<text text-anchor="middle" x="212.5599" y="-240.0168" font-family="Times,serif" font-size="14.00" fill="#000000">bootcode.bin</text>
<text text-anchor="middle" x="212.5599" y="-225.0168" font-family="Times,serif" font-size="14.00" fill="#000000">on usb mass&#45;storage</text>
</g>
<!-- usb_host_boot&#45;&gt;usb_bootcode -->
<g id="edge14" class="edge">
<title>usb_host_boot&#45;&gt;usb_bootcode</title>
<path fill="none" stroke="#000000" d="M212.5599,-345.4291C212.5599,-326.7185 212.5599,-297.0988 212.5599,-273.4238"/>
<polygon fill="#000000" stroke="#000000" points="216.06,-273.3585 212.5599,-263.3586 209.06,-273.3586 216.06,-273.3585"/>
</g>
<!-- usb_netboot -->
<g id="node16" class="node">
<title>usb_netboot</title>
<ellipse fill="none" stroke="#000000" cx="432.5599" cy="-236.2168" rx="85.6199" ry="37.4533"/>
<text text-anchor="middle" x="432.5599" y="-247.5168" font-family="Times,serif" font-size="14.00" fill="#000000">bootcode.bin</text>
<text text-anchor="middle" x="432.5599" y="-232.5168" font-family="Times,serif" font-size="14.00" fill="#000000">over tftp</text>
<text text-anchor="middle" x="432.5599" y="-217.5168" font-family="Times,serif" font-size="14.00" fill="#000000">over LAN951x</text>
</g>
<!-- usb_host_boot&#45;&gt;usb_netboot -->
<g id="edge15" class="edge">
<title>usb_host_boot&#45;&gt;usb_netboot</title>
<path fill="none" stroke="#000000" d="M241.7742,-346.7655C274.8381,-327.607 329.6046,-295.8731 371.9995,-271.3078"/>
<polygon fill="#000000" stroke="#000000" points="373.9485,-274.2237 380.8461,-266.1818 370.4389,-268.167 373.9485,-274.2237"/>
</g>
<!-- usb_bootcode&#45;&gt;start_elf -->
<g id="edge17" class="edge">
<title>usb_bootcode&#45;&gt;start_elf</title>
<path fill="none" stroke="#000000" d="M222.1033,-209.1823C229.6758,-187.7306 240.2186,-157.8648 247.8375,-136.2819"/>
<polygon fill="#000000" stroke="#000000" points="251.1855,-137.312 251.2139,-126.7172 244.5847,-134.9818 251.1855,-137.312"/>
</g>
<!-- usb_netboot&#45;&gt;start_elf -->
<g id="edge18" class="edge">
<title>usb_netboot&#45;&gt;start_elf</title>
<path fill="none" stroke="#000000" d="M388.4,-204.049C357.0175,-181.1888 315.6839,-151.0798 287.9469,-130.8752"/>
<polygon fill="#000000" stroke="#000000" points="289.9452,-128.0006 279.8015,-124.9417 285.8236,-133.6587 289.9452,-128.0006"/>
</g>
<!-- final -->
<g id="node19" class="node">
<title>final</title>
<ellipse fill="none" stroke="#000000" cx="299.5599" cy="-26.8701" rx="147.5709" ry="26.7407"/>
<text text-anchor="middle" x="299.5599" y="-30.6701" font-family="Times,serif" font-size="14.00" fill="#000000">load linux and enable arm</text>
<text text-anchor="middle" x="299.5599" y="-15.6701" font-family="Times,serif" font-size="14.00" fill="#000000">as configured by config.txt</text>
</g>
<!-- start_elf&#45;&gt;final -->
<g id="edge20" class="edge">
<title>start_elf&#45;&gt;final</title>
<path fill="none" stroke="#000000" d="M266.6733,-90.9755C270.915,-82.7073 276.1213,-72.5586 281.1297,-62.7958"/>
<polygon fill="#000000" stroke="#000000" points="284.3826,-64.1229 285.833,-53.6278 278.1543,-60.9277 284.3826,-64.1229"/>
</g>
<!-- start4_elf&#45;&gt;final -->
<g id="edge21" class="edge">
<title>start4_elf&#45;&gt;final</title>
<path fill="none" stroke="#000000" d="M485.5269,-146.6205C451.9269,-124.9843 391.5173,-86.0845 348.6749,-58.4968"/>
<polygon fill="#000000" stroke="#000000" points="350.3874,-55.4367 340.0848,-52.9654 346.5976,-61.3221 350.3874,-55.4367"/>
</g>
</g>
</svg>
