<?xml version="1.0" encoding="UTF-8" standalone="no"?>
<!DOCTYPE svg PUBLIC "-//W3C//DTD SVG 1.1//EN"
 "http://www.w3.org/Graphics/SVG/1.1/DTD/svg11.dtd">
<!-- Generated by graphviz version 2.40.1 (20161225.0304)
 -->
<!-- Title: %3 Pages: 1 -->
<svg width="1525pt" height="415pt"
 viewBox="0.00 0.00 1525.49 415.43" xmlns="http://www.w3.org/2000/svg" xmlns:xlink="http://www.w3.org/1999/xlink">
<g id="graph0" class="graph" transform="scale(1 1) rotate(0) translate(4 411.4335)">
<title>%3</title>
<polygon fill="#ffffff" stroke="transparent" points="-4,4 -4,-411.4335 1521.4902,-411.4335 1521.4902,4 -4,4"/>
<!-- sdhost -->
<g id="node1" class="node">
<title>sdhost</title>
<ellipse fill="none" stroke="#000000" cx="127.3443" cy="-369.9569" rx="74.4932" ry="37.4533"/>
<text text-anchor="middle" x="127.3443" y="-381.2569" font-family="Times,serif" font-size="14.00" fill="#000000">SDHOST</text>
<text text-anchor="middle" x="127.3443" y="-366.2569" font-family="Times,serif" font-size="14.00" fill="#000000">0x7e202000</text>
<text text-anchor="middle" x="127.3443" y="-351.2569" font-family="Times,serif" font-size="14.00" fill="#000000">SD0_x</text>
</g>
<!-- sd_bank0 -->
<g id="node5" class="node">
<title>sd_bank0</title>
<ellipse fill="none" stroke="#000000" cx="211.3443" cy="-254.6102" rx="55.4913" ry="18"/>
<text text-anchor="middle" x="211.3443" y="-250.9102" font-family="Times,serif" font-size="14.00" fill="#000000">sd_bank0</text>
</g>
<!-- sdhost&#45;&gt;sd_bank0 -->
<g id="edge4" class="edge">
<title>sdhost&#45;&gt;sd_bank0</title>
<path fill="none" stroke="#000000" d="M153.0035,-334.7223C165.7047,-317.2813 180.768,-296.5967 192.4067,-280.6148"/>
<polygon fill="#000000" stroke="#000000" points="195.426,-282.4142 198.4836,-272.2701 189.7675,-278.2934 195.426,-282.4142"/>
</g>
<!-- sd_bank2 -->
<g id="node9" class="node">
<title>sd_bank2</title>
<ellipse fill="none" stroke="#000000" cx="83.3443" cy="-254.6102" rx="55.4913" ry="18"/>
<text text-anchor="middle" x="83.3443" y="-250.9102" font-family="Times,serif" font-size="14.00" fill="#000000">sd_bank2</text>
</g>
<!-- sdhost&#45;&gt;sd_bank2 -->
<g id="edge5" class="edge">
<title>sdhost&#45;&gt;sd_bank2</title>
<path fill="none" stroke="#000000" d="M113.3014,-333.1433C106.9883,-316.5935 99.6649,-297.395 93.8393,-282.1229"/>
<polygon fill="#000000" stroke="#000000" points="97.0872,-280.8171 90.2529,-272.7213 90.5469,-283.3121 97.0872,-280.8171"/>
</g>
<!-- sdhci -->
<g id="node2" class="node">
<title>sdhci</title>
<ellipse fill="none" stroke="#000000" cx="310.3443" cy="-369.9569" rx="74.4932" ry="37.4533"/>
<text text-anchor="middle" x="310.3443" y="-381.2569" font-family="Times,serif" font-size="14.00" fill="#000000">SDHCI</text>
<text text-anchor="middle" x="310.3443" y="-366.2569" font-family="Times,serif" font-size="14.00" fill="#000000">0x7e300000</text>
<text text-anchor="middle" x="310.3443" y="-351.2569" font-family="Times,serif" font-size="14.00" fill="#000000">SD1_x</text>
</g>
<!-- sdhci&#45;&gt;sd_bank0 -->
<g id="edge8" class="edge">
<title>sdhci&#45;&gt;sd_bank0</title>
<path fill="none" stroke="#000000" d="M280.641,-335.3491C265.4117,-317.6051 247.1892,-296.3737 233.2535,-280.137"/>
<polygon fill="#000000" stroke="#000000" points="235.5642,-277.4553 226.3954,-272.1465 230.2524,-282.0143 235.5642,-277.4553"/>
</g>
<!-- sd_bank1 -->
<g id="node7" class="node">
<title>sd_bank1</title>
<ellipse fill="none" stroke="#000000" cx="358.3443" cy="-254.6102" rx="74.4932" ry="26.7407"/>
<text text-anchor="middle" x="358.3443" y="-258.4102" font-family="Times,serif" font-size="14.00" fill="#000000">sd_bank1</text>
<text text-anchor="middle" x="358.3443" y="-243.4102" font-family="Times,serif" font-size="14.00" fill="#000000">8bit capable</text>
</g>
<!-- sdhci&#45;&gt;sd_bank1 -->
<g id="edge9" class="edge">
<title>sdhci&#45;&gt;sd_bank1</title>
<path fill="none" stroke="#00ff00" d="M329.5442,-323.8184C334.1554,-312.7375 339.013,-301.0643 343.3982,-290.5266"/>
<polygon fill="#00ff00" stroke="#00ff00" points="326.2744,-322.5661 325.6638,-333.1433 332.7372,-325.2555 326.2744,-322.5661"/>
<polygon fill="#00ff00" stroke="#00ff00" points="346.6612,-291.7951 347.2719,-281.2179 340.1984,-289.1057 346.6612,-291.7951"/>
</g>
<!-- sdhci&#45;&gt;sd_bank2 -->
<g id="edge10" class="edge">
<title>sdhci&#45;&gt;sd_bank2</title>
<path fill="none" stroke="#000000" d="M257.9809,-343.3492C216.5789,-322.3114 159.7072,-293.4128 122.2645,-274.3869"/>
<polygon fill="#000000" stroke="#000000" points="123.6857,-271.1832 113.1851,-269.7733 120.5146,-277.4237 123.6857,-271.1832"/>
</g>
<!-- sdmux -->
<g id="node13" class="node">
<title>sdmux</title>
<ellipse fill="none" stroke="#000000" cx="516.3443" cy="-254.6102" rx="41.6928" ry="18"/>
<text text-anchor="middle" x="516.3443" y="-250.9102" font-family="Times,serif" font-size="14.00" fill="#000000">sdmux</text>
</g>
<!-- sdhci&#45;&gt;sdmux -->
<g id="edge11" class="edge">
<title>sdhci&#45;&gt;sdmux</title>
<path fill="none" stroke="#ff0000" d="M369.1195,-337.0466C405.5158,-316.667 451.0065,-291.1951 481.7134,-274.0012"/>
<polygon fill="#ff0000" stroke="#ff0000" points="367.2265,-334.0952 360.2111,-342.0347 370.6464,-340.2029 367.2265,-334.0952"/>
<polygon fill="#ff0000" stroke="#ff0000" points="483.7268,-276.8853 490.7421,-268.9458 480.3068,-270.7776 483.7268,-276.8853"/>
</g>
<!-- EMMC2 -->
<g id="node3" class="node">
<title>EMMC2</title>
<ellipse fill="none" stroke="#000000" cx="516.3443" cy="-369.9569" rx="49.2915" ry="18"/>
<text text-anchor="middle" x="516.3443" y="-366.2569" font-family="Times,serif" font-size="14.00" fill="#000000">EMMC2</text>
</g>
<!-- EMMC2&#45;&gt;sdmux -->
<g id="edge7" class="edge">
<title>EMMC2&#45;&gt;sdmux</title>
<path fill="none" stroke="#00ff00" d="M516.3443,-341.7826C516.3443,-323.9291 516.3443,-300.9147 516.3443,-283.0167"/>
<polygon fill="#00ff00" stroke="#00ff00" points="512.8444,-341.9339 516.3443,-351.934 519.8444,-341.934 512.8444,-341.9339"/>
<polygon fill="#00ff00" stroke="#00ff00" points="519.8444,-282.8872 516.3443,-272.8872 512.8444,-282.8872 519.8444,-282.8872"/>
</g>
<!-- genet -->
<g id="node4" class="node">
<title>genet</title>
<ellipse fill="none" stroke="#000000" cx="802.3443" cy="-369.9569" rx="37.0935" ry="18"/>
<text text-anchor="middle" x="802.3443" y="-366.2569" font-family="Times,serif" font-size="14.00" fill="#000000">genet</text>
</g>
<!-- ethernetmux -->
<g id="node14" class="node">
<title>ethernetmux</title>
<ellipse fill="none" stroke="#000000" cx="721.3443" cy="-254.6102" rx="70.6878" ry="18"/>
<text text-anchor="middle" x="721.3443" y="-250.9102" font-family="Times,serif" font-size="14.00" fill="#000000">ethernetmux</text>
</g>
<!-- genet&#45;&gt;ethernetmux -->
<g id="edge12" class="edge">
<title>genet&#45;&gt;ethernetmux</title>
<path fill="none" stroke="#000000" d="M784.1214,-344.0069C770.891,-325.1663 753.0562,-299.7691 739.7774,-280.8595"/>
<polygon fill="#000000" stroke="#000000" points="781.4309,-346.2659 790.0421,-352.4382 787.1595,-342.243 781.4309,-346.2659"/>
<polygon fill="#000000" stroke="#000000" points="742.641,-278.847 734.0298,-272.6747 736.9124,-282.8699 742.641,-278.847"/>
</g>
<!-- GPIO28_29 -->
<g id="node15" class="node">
<title>GPIO28_29</title>
<ellipse fill="none" stroke="#000000" cx="834.3443" cy="-191.7401" rx="64.189" ry="18"/>
<text text-anchor="middle" x="834.3443" y="-188.0401" font-family="Times,serif" font-size="14.00" fill="#000000">GPIO28_29</text>
</g>
<!-- genet&#45;&gt;GPIO28_29 -->
<g id="edge13" class="edge">
<title>genet&#45;&gt;GPIO28_29</title>
<path fill="none" stroke="#000000" d="M807.4034,-341.7814C813.3936,-308.4201 823.3105,-253.1903 829.296,-219.8553"/>
<polygon fill="#000000" stroke="#000000" points="803.9112,-341.4266 805.5887,-351.8878 810.801,-342.6637 803.9112,-341.4266"/>
<polygon fill="#000000" stroke="#000000" points="832.7688,-220.3183 831.0913,-209.8571 825.879,-219.0811 832.7688,-220.3183"/>
</g>
<!-- GPIO22_27 -->
<g id="node6" class="node">
<title>GPIO22_27</title>
<ellipse fill="none" stroke="#000000" cx="211.3443" cy="-128.8701" rx="64.189" ry="18"/>
<text text-anchor="middle" x="211.3443" y="-125.1701" font-family="Times,serif" font-size="14.00" fill="#000000">GPIO22_27</text>
</g>
<!-- sd_bank0&#45;&gt;GPIO22_27 -->
<g id="edge1" class="edge">
<title>sd_bank0&#45;&gt;GPIO22_27</title>
<path fill="none" stroke="#000000" d="M211.3443,-236.5947C211.3443,-215.8911 211.3443,-181.6464 211.3443,-157.3286"/>
<polygon fill="#000000" stroke="#000000" points="214.8444,-157.261 211.3443,-147.261 207.8444,-157.2611 214.8444,-157.261"/>
</g>
<!-- GPIO34_43 -->
<g id="node8" class="node">
<title>GPIO34_43</title>
<ellipse fill="none" stroke="#000000" cx="358.3443" cy="-128.8701" rx="64.189" ry="18"/>
<text text-anchor="middle" x="358.3443" y="-125.1701" font-family="Times,serif" font-size="14.00" fill="#000000">GPIO34_43</text>
</g>
<!-- sd_bank1&#45;&gt;GPIO34_43 -->
<g id="edge2" class="edge">
<title>sd_bank1&#45;&gt;GPIO34_43</title>
<path fill="none" stroke="#000000" d="M358.3443,-227.6358C358.3443,-206.8657 358.3443,-178.2352 358.3443,-157.1459"/>
<polygon fill="#000000" stroke="#000000" points="361.8444,-156.8866 358.3443,-146.8866 354.8444,-156.8866 361.8444,-156.8866"/>
</g>
<!-- wifi -->
<g id="node23" class="node">
<title>wifi</title>
<ellipse fill="none" stroke="#000000" cx="358.3443" cy="-18" rx="27.8951" ry="18"/>
<text text-anchor="middle" x="358.3443" y="-14.3" font-family="Times,serif" font-size="14.00" fill="#000000">wifi</text>
</g>
<!-- GPIO34_43&#45;&gt;wifi -->
<g id="edge20" class="edge">
<title>GPIO34_43&#45;&gt;wifi</title>
<path fill="none" stroke="#000000" d="M358.3443,-110.5621C358.3443,-93.1492 358.3443,-66.6911 358.3443,-46.5155"/>
<polygon fill="#000000" stroke="#000000" points="361.8444,-46.3351 358.3443,-36.3351 354.8444,-46.3352 361.8444,-46.3351"/>
<text text-anchor="middle" x="394.8443" y="-72.8" font-family="Times,serif" font-size="14.00" fill="#000000">34&#45;39</text>
<text text-anchor="middle" x="394.8443" y="-57.8" font-family="Times,serif" font-size="14.00" fill="#000000">4bit mode</text>
</g>
<!-- GPIO48_53 -->
<g id="node10" class="node">
<title>GPIO48_53</title>
<ellipse fill="none" stroke="#000000" cx="64.3443" cy="-128.8701" rx="64.189" ry="18"/>
<text text-anchor="middle" x="64.3443" y="-125.1701" font-family="Times,serif" font-size="14.00" fill="#000000">GPIO48_53</text>
</g>
<!-- sd_bank2&#45;&gt;GPIO48_53 -->
<g id="edge3" class="edge">
<title>sd_bank2&#45;&gt;GPIO48_53</title>
<path fill="none" stroke="#000000" d="M80.6221,-236.5947C77.4936,-215.8911 72.3191,-181.6464 68.6445,-157.3286"/>
<polygon fill="#000000" stroke="#000000" points="72.0782,-156.6258 67.1233,-147.261 65.1567,-157.6717 72.0782,-156.6258"/>
</g>
<!-- PL011 -->
<g id="node11" class="node">
<title>PL011</title>
<ellipse fill="none" stroke="#000000" cx="946.3443" cy="-369.9569" rx="40.8928" ry="18"/>
<text text-anchor="middle" x="946.3443" y="-366.2569" font-family="Times,serif" font-size="14.00" fill="#000000">PL011</text>
</g>
<!-- GPIO30_33 -->
<g id="node12" class="node">
<title>GPIO30_33</title>
<ellipse fill="none" stroke="#000000" cx="946.3443" cy="-254.6102" rx="64.189" ry="18"/>
<text text-anchor="middle" x="946.3443" y="-250.9102" font-family="Times,serif" font-size="14.00" fill="#000000">GPIO30_33</text>
</g>
<!-- PL011&#45;&gt;GPIO30_33 -->
<g id="edge6" class="edge">
<title>PL011&#45;&gt;GPIO30_33</title>
<path fill="none" stroke="#000000" d="M946.3443,-351.934C946.3443,-333.5046 946.3443,-304.6057 946.3443,-283.0801"/>
<polygon fill="#000000" stroke="#000000" points="949.8444,-282.8872 946.3443,-272.8872 942.8444,-282.8872 949.8444,-282.8872"/>
</g>
<!-- bluetooth -->
<g id="node22" class="node">
<title>bluetooth</title>
<ellipse fill="none" stroke="#000000" cx="946.3443" cy="-128.8701" rx="55.4913" ry="18"/>
<text text-anchor="middle" x="946.3443" y="-125.1701" font-family="Times,serif" font-size="14.00" fill="#000000">bluetooth</text>
</g>
<!-- GPIO30_33&#45;&gt;bluetooth -->
<g id="edge19" class="edge">
<title>GPIO30_33&#45;&gt;bluetooth</title>
<path fill="none" stroke="#000000" d="M946.3443,-236.5947C946.3443,-215.8911 946.3443,-181.6464 946.3443,-157.3286"/>
<polygon fill="#000000" stroke="#000000" points="949.8444,-157.261 946.3443,-147.261 942.8444,-157.2611 949.8444,-157.261"/>
</g>
<!-- uSD -->
<g id="node17" class="node">
<title>uSD</title>
<ellipse fill="none" stroke="#000000" cx="539.3443" cy="-128.8701" rx="98.9899" ry="26.7407"/>
<text text-anchor="middle" x="539.3443" y="-132.6701" font-family="Times,serif" font-size="14.00" fill="#000000">uSD slot</text>
<text text-anchor="middle" x="539.3443" y="-117.6701" font-family="Times,serif" font-size="14.00" fill="#000000">not on gpio array</text>
</g>
<!-- sdmux&#45;&gt;uSD -->
<g id="edge15" class="edge">
<title>sdmux&#45;&gt;uSD</title>
<path fill="none" stroke="#000000" d="M521.4561,-226.6642C524.7167,-208.8384 528.9809,-185.5261 532.5281,-166.1339"/>
<polygon fill="#000000" stroke="#000000" points="517.9961,-226.1281 519.6396,-236.5947 524.8819,-227.3877 517.9961,-226.1281"/>
<polygon fill="#000000" stroke="#000000" points="536.0046,-166.5792 534.3612,-156.1126 529.1189,-165.3196 536.0046,-166.5792"/>
</g>
<!-- GPIO46_57 -->
<g id="node16" class="node">
<title>GPIO46_57</title>
<ellipse fill="none" stroke="#000000" cx="720.3443" cy="-128.8701" rx="64.189" ry="18"/>
<text text-anchor="middle" x="720.3443" y="-125.1701" font-family="Times,serif" font-size="14.00" fill="#000000">GPIO46_57</text>
</g>
<!-- ethernetmux&#45;&gt;GPIO46_57 -->
<g id="edge14" class="edge">
<title>ethernetmux&#45;&gt;GPIO46_57</title>
<path fill="none" stroke="#000000" d="M714.7869,-226.3143C713.7699,-220.8441 712.8801,-215.1361 712.3443,-209.7401 710.7633,-193.8184 710.9346,-189.6779 712.3443,-173.7401 712.8201,-168.3606 713.6108,-162.6603 714.5147,-157.1926"/>
<polygon fill="#000000" stroke="#000000" points="711.4147,-227.2952 716.8396,-236.3958 718.274,-225.8985 711.4147,-227.2952"/>
<polygon fill="#000000" stroke="#000000" points="718.0025,-157.5736 716.3394,-147.1102 711.1144,-156.327 718.0025,-157.5736"/>
<text text-anchor="middle" x="736.8443" y="-188.0401" font-family="Times,serif" font-size="14.00" fill="#000000">RGMII</text>
</g>
<!-- gigabit_phy -->
<g id="node21" class="node">
<title>gigabit_phy</title>
<ellipse fill="none" stroke="#000000" cx="796.3443" cy="-18" rx="65.7887" ry="18"/>
<text text-anchor="middle" x="796.3443" y="-14.3" font-family="Times,serif" font-size="14.00" fill="#000000">gigabit_phy</text>
</g>
<!-- GPIO28_29&#45;&gt;gigabit_phy -->
<g id="edge18" class="edge">
<title>GPIO28_29&#45;&gt;gigabit_phy</title>
<path fill="none" stroke="#000000" d="M833.3118,-163.4616C831.6183,-135.1618 827.1474,-90.6767 815.3443,-54 814.3795,-51.0022 813.1749,-47.9572 811.8432,-44.9722"/>
<polygon fill="#000000" stroke="#000000" points="829.8174,-163.6616 833.8344,-173.4653 836.8079,-163.2963 829.8174,-163.6616"/>
<polygon fill="#000000" stroke="#000000" points="814.8644,-43.1858 807.2942,-35.7735 808.5898,-46.2888 814.8644,-43.1858"/>
<text text-anchor="middle" x="855.3443" y="-125.1701" font-family="Times,serif" font-size="14.00" fill="#000000">MDIO</text>
</g>
<!-- GPIO46_57&#45;&gt;gigabit_phy -->
<g id="edge25" class="edge">
<title>GPIO46_57&#45;&gt;gigabit_phy</title>
<path fill="none" stroke="#000000" d="M735.6479,-101.8892C744.1958,-87.3723 755.321,-69.3484 766.3443,-54 768.8537,-50.506 771.6063,-46.9196 774.3946,-43.428"/>
<polygon fill="#000000" stroke="#000000" points="732.4329,-100.4554 730.4299,-110.8592 738.4836,-103.9752 732.4329,-100.4554"/>
<polygon fill="#000000" stroke="#000000" points="777.2289,-45.4913 780.8677,-35.541 771.818,-41.0504 777.2289,-45.4913"/>
<text text-anchor="middle" x="790.8443" y="-65.3" font-family="Times,serif" font-size="14.00" fill="#000000">RGMII</text>
</g>
<!-- SPI2 -->
<g id="node18" class="node">
<title>SPI2</title>
<ellipse fill="none" stroke="#000000" cx="1253.3443" cy="-369.9569" rx="33.2948" ry="18"/>
<text text-anchor="middle" x="1253.3443" y="-366.2569" font-family="Times,serif" font-size="14.00" fill="#000000">SPI2</text>
</g>
<!-- GPIO40_45 -->
<g id="node19" class="node">
<title>GPIO40_45</title>
<ellipse fill="none" stroke="#000000" cx="1300.3443" cy="-254.6102" rx="64.189" ry="18"/>
<text text-anchor="middle" x="1300.3443" y="-250.9102" font-family="Times,serif" font-size="14.00" fill="#000000">GPIO40_45</text>
</g>
<!-- SPI2&#45;&gt;GPIO40_45 -->
<g id="edge16" class="edge">
<title>SPI2&#45;&gt;GPIO40_45</title>
<path fill="none" stroke="#ff0000" d="M1260.0526,-341.9753C1263.6153,-328.8212 1268.4769,-313.0772 1274.3443,-299.4802 1276.9662,-293.4044 1280.2257,-287.1187 1283.5407,-281.2445"/>
<polygon fill="#ff0000" stroke="#ff0000" points="1256.6067,-341.32 1257.4794,-351.8788 1263.3817,-343.0803 1256.6067,-341.32"/>
<polygon fill="#ff0000" stroke="#ff0000" points="1286.6645,-282.8368 1288.7118,-272.4416 1280.6289,-279.2912 1286.6645,-282.8368"/>
<text text-anchor="middle" x="1294.8443" y="-303.2802" font-family="Times,serif" font-size="14.00" fill="#000000">40&#45;45</text>
</g>
<!-- analog_audio -->
<g id="node24" class="node">
<title>analog_audio</title>
<ellipse fill="none" stroke="#000000" cx="1091.3443" cy="-128.8701" rx="71.4873" ry="18"/>
<text text-anchor="middle" x="1091.3443" y="-125.1701" font-family="Times,serif" font-size="14.00" fill="#000000">analog_audio</text>
</g>
<!-- GPIO40_45&#45;&gt;analog_audio -->
<g id="edge21" class="edge">
<title>GPIO40_45&#45;&gt;analog_audio</title>
<path fill="none" stroke="#00ff00" d="M1270.0867,-238.6725C1254.4915,-230.3025 1235.248,-219.732 1218.3443,-209.7401 1186.3395,-190.8219 1150.6956,-167.9624 1125.3354,-151.3806"/>
<polygon fill="#00ff00" stroke="#00ff00" points="1127.0985,-148.3514 1116.8169,-145.794 1123.2596,-154.2049 1127.0985,-148.3514"/>
<text text-anchor="middle" x="1238.8443" y="-188.0401" font-family="Times,serif" font-size="14.00" fill="#000000">40,41</text>
</g>
<!-- status_led -->
<g id="node25" class="node">
<title>status_led</title>
<ellipse fill="none" stroke="#000000" cx="1239.3443" cy="-128.8701" rx="58.4896" ry="18"/>
<text text-anchor="middle" x="1239.3443" y="-125.1701" font-family="Times,serif" font-size="14.00" fill="#000000">status_led</text>
</g>
<!-- GPIO40_45&#45;&gt;status_led -->
<g id="edge22" class="edge">
<title>GPIO40_45&#45;&gt;status_led</title>
<path fill="none" stroke="#00ff00" d="M1291.6045,-236.5947C1281.3673,-215.4927 1264.3057,-180.3233 1252.4747,-155.9359"/>
<polygon fill="#00ff00" stroke="#00ff00" points="1255.5817,-154.3216 1248.0679,-146.8521 1249.2837,-157.377 1255.5817,-154.3216"/>
<text text-anchor="middle" x="1286.8443" y="-188.0401" font-family="Times,serif" font-size="14.00" fill="#000000">42</text>
</g>
<!-- camera -->
<g id="node26" class="node">
<title>camera</title>
<ellipse fill="none" stroke="#000000" cx="1361.3443" cy="-128.8701" rx="45.4919" ry="18"/>
<text text-anchor="middle" x="1361.3443" y="-125.1701" font-family="Times,serif" font-size="14.00" fill="#000000">camera</text>
</g>
<!-- GPIO40_45&#45;&gt;camera -->
<g id="edge23" class="edge">
<title>GPIO40_45&#45;&gt;camera</title>
<path fill="none" stroke="#00ff00" d="M1313.4934,-227.5057C1323.7579,-206.3473 1337.9511,-177.0907 1348.2115,-155.9409"/>
<polygon fill="#00ff00" stroke="#00ff00" points="1310.2999,-226.0698 1309.0841,-236.5947 1316.5979,-229.1252 1310.2999,-226.0698"/>
<polygon fill="#00ff00" stroke="#00ff00" points="1351.4049,-157.377 1352.6207,-146.8521 1345.1069,-154.3216 1351.4049,-157.377"/>
<text text-anchor="middle" x="1358.8443" y="-188.0401" font-family="Times,serif" font-size="14.00" fill="#000000">44,45</text>
</g>
<!-- eeprom -->
<g id="node27" class="node">
<title>eeprom</title>
<ellipse fill="none" stroke="#000000" cx="1471.3443" cy="-128.8701" rx="46.2923" ry="18"/>
<text text-anchor="middle" x="1471.3443" y="-125.1701" font-family="Times,serif" font-size="14.00" fill="#000000">eeprom</text>
</g>
<!-- GPIO40_45&#45;&gt;eeprom -->
<g id="edge24" class="edge">
<title>GPIO40_45&#45;&gt;eeprom</title>
<path fill="none" stroke="#ff0000" d="M1342.4764,-234.4251C1355.9577,-227.2937 1370.6653,-218.7803 1383.3443,-209.7401 1406.932,-192.922 1430.9658,-170.3945 1447.9433,-153.3875"/>
<polygon fill="#ff0000" stroke="#ff0000" points="1340.6531,-231.4277 1333.3791,-239.1309 1343.8692,-237.6451 1340.6531,-231.4277"/>
<polygon fill="#ff0000" stroke="#ff0000" points="1450.6946,-155.582 1455.2202,-146.0023 1445.7084,-150.6689 1450.6946,-155.582"/>
<text text-anchor="middle" x="1445.8443" y="-188.0401" font-family="Times,serif" font-size="14.00" fill="#000000">40&#45;43</text>
</g>
<!-- PWM1 -->
<g id="node20" class="node">
<title>PWM1</title>
<ellipse fill="none" stroke="#000000" cx="1346.3443" cy="-369.9569" rx="42.4939" ry="18"/>
<text text-anchor="middle" x="1346.3443" y="-366.2569" font-family="Times,serif" font-size="14.00" fill="#000000">PWM1</text>
</g>
<!-- PWM1&#45;&gt;GPIO40_45 -->
<g id="edge17" class="edge">
<title>PWM1&#45;&gt;GPIO40_45</title>
<path fill="none" stroke="#00ff00" d="M1339.1568,-351.934C1331.6627,-333.1422 1319.8276,-303.4653 1311.1951,-281.8191"/>
<polygon fill="#00ff00" stroke="#00ff00" points="1314.4367,-280.4986 1307.4813,-272.5065 1307.9346,-283.0917 1314.4367,-280.4986"/>
<text text-anchor="middle" x="1343.8443" y="-303.2802" font-family="Times,serif" font-size="14.00" fill="#000000">40,41</text>
</g>
</g>
</svg>
